HIERARCHY
ROOT Hips
{
	OFFSET 0.00000 0.00000 0.00000
	CHANNELS 6 Xposition Yposition Zposition Zrotation Yrotation Xrotation 
	JOINT LHipJoint
	{
		OFFSET 0 0 0
		CHANNELS 3 Zrotation Yrotation Xrotation
		JOINT LeftHip
		{
			OFFSET 1.65412 -1.54119 0.76744
			CHANNELS 3 Zrotation Yrotation Xrotation
			JOINT LeftKnee
			{
				OFFSET 2.19550 -6.03209 0.00000
				CHANNELS 3 Zrotation Yrotation Xrotation
				JOINT LeftAnkle
				{
					OFFSET 2.38814 -6.56138 0.00000
					CHANNELS 3 Zrotation Yrotation Xrotation
					JOINT LeftToe
					{
						OFFSET 0.17337 -0.47632 1.75875
						CHANNELS 3 Zrotation Yrotation Xrotation
						End Site
						{
							OFFSET 0.00000 -0.00000 0.92050
						}
					}
				}
			}
		}
	}
	JOINT RHipJoint
	{
		OFFSET 0 0 0
		CHANNELS 3 Zrotation Yrotation Xrotation
		JOINT RightHip
		{
			OFFSET -1.40291 -1.54119 0.76744
			CHANNELS 3 Zrotation Yrotation Xrotation
			JOINT RightKnee
			{
				OFFSET -2.22156 -6.10370 0.00000
				CHANNELS 3 Zrotation Yrotation Xrotation
				JOINT RightAnkle
				{
					OFFSET -2.46840 -6.78188 0.00000
					CHANNELS 3 Zrotation Yrotation Xrotation
					JOINT RightToe
					{
						OFFSET -0.15659 -0.43024 1.84117
						CHANNELS 3 Zrotation Yrotation Xrotation
						End Site
						{
							OFFSET -0.00000 -0.00000 0.95587
						}
					}
				}
			}
		}
	}
	JOINT lowerback
	{
		OFFSET 0 0 0
		CHANNELS 3 Zrotation Yrotation Xrotation
		JOINT Chest
		{
			OFFSET -0.01936 1.82120 -0.32061
			CHANNELS 3 Zrotation Yrotation Xrotation
			JOINT Chest2
			{
				OFFSET -0.00532 1.85767 -0.00071
				CHANNELS 3 Zrotation Yrotation Xrotation
				JOINT lowerneck
				{
					OFFSET 0 0 0
					CHANNELS 3 Zrotation Yrotation Xrotation
					JOINT Neck
					{
						OFFSET -0.10687 1.58194 0.10810
						CHANNELS 3 Zrotation Yrotation Xrotation
						JOINT Head
						{
							OFFSET 0.15346 1.57382 -0.25612
							CHANNELS 3 Zrotation Yrotation Xrotation
							End Site
							{
								OFFSET 0.05334 1.61251 -0.10513
							}
						}
					}
				}
				JOINT LeftCollar
				{
					OFFSET 0 0 0
					CHANNELS 3 Zrotation Yrotation Xrotation
					JOINT LeftShoulder
					{
						OFFSET 2.85758 0.89498 -0.01485
CHANNELS 3 Zrotation Xrotation Yrotation
						JOINT LeftElbow
						{
OFFSET 0 -4.791850 -0.000000
CHANNELS 3 Zrotation Xrotation Yrotation
							JOINT LeftWrist
							{
OFFSET 0 -2.655530 0.000000
CHANNELS 3 Zrotation Xrotation Yrotation
								JOINT lhand
								{
									OFFSET 0 0 0
CHANNELS 3 Zrotation Xrotation Yrotation
									JOINT LFingers
									{
OFFSET 0 -0.743900 0.000000
CHANNELS 3 Zrotation Xrotation Yrotation
										End Site
										{
OFFSET 0 -0.599750 0.000000
										}
									}
								}
								JOINT LThumb
								{
OFFSET 0 0.000000 0.000000
CHANNELS 3 Zrotation Xrotation Yrotation
									End Site
									{
OFFSET 0 -0.608910 0.608910
									}
								}
							}
						}
					}
				}
				JOINT RightCollar
				{
					OFFSET 0 0 0
					CHANNELS 3 Zrotation Yrotation Xrotation
					JOINT RightShoulder
					{
						OFFSET -2.93906 0.88031 0.02490
CHANNELS 3 Zrotation Xrotation Yrotation
						JOINT RightElbow
						{
OFFSET 0 -4.772540 -0.000000
CHANNELS 3 Zrotation Xrotation Yrotation
							JOINT RightWrist
							{
OFFSET 0 -2.759950 -0.000000
CHANNELS 3 Zrotation Xrotation Yrotation
								JOINT rhand
								{
									OFFSET 0 0 0
CHANNELS 3 Zrotation Xrotation Yrotation
									JOINT RFingers
									{
OFFSET 0 -0.701620 0.000000
CHANNELS 3 Zrotation Xrotation Yrotation
										End Site
										{
OFFSET 0 -0.565660 0.000000
										}
									}
								}
								JOINT RThumb
								{
OFFSET 0 0.000000 0.000000
CHANNELS 3 Zrotation Xrotation Yrotation
									End Site
									{
OFFSET 0 -0.574300 0.574300
									}
								}
							}
						}
					}
				}
			}
		}
	}
}
MOTION
Frames: 10
Frame Time: 0.008333333333333333
0.740100 16.157800 0.099900 -0.610900 -2.923200 1.279200 0.000000 0.000000 0.000000 -18.972800 -7.590700 8.107600 0.037000 1.241100 3.412500 -0.037800 7.472700 -9.772500 0.157000 -2.552900 -7.036300 0.000000 0.000000 0.000000 16.409500 13.066000 4.921000 -0.368300 -3.898000 10.789900 -0.017600 -9.389400 -13.681000 -0.052300 1.475900 -4.059400 -2.440100 0.692200 8.960300 1.874900 0.771800 -2.071800 3.237000 0.530200 -7.282800 -11.803100 -8.700200 -9.670700 5.416900 -12.023800 33.296700 2.334300 -6.095000 14.065200 -0.000000 0.000000 0.000000 46.688700 21.607000 -81.543600 106.092700 -58.998500 73.889800 -27.221500 -50.134100 -21.389900 0.000000 0.000000 0.000000 -7.125000 0.000000 0.000000 -49.603600 45.213300 0.353600 -0.000000 0.000000 0.000000 -31.160400 4.745300 -20.038700 -35.252900 -44.991900 -14.991900 -0.934800 28.139400 -3.398300 0.000000 0.000000 0.000000 7.125000 0.000000 -0.000000 19.264300 26.432500 9.170400
0.694328 16.151386 0.096634 -0.618778 -2.622814 0.918738 0.000000 0.000000 0.000000 -18.855022 -7.906739 8.179492 0.051389 1.461666 4.020091 -0.022952 7.394617 -10.013471 0.180327 -2.735422 -7.543013 0.000000 0.000000 0.000000 16.766139 13.130818 5.437788 -0.369479 -3.904186 10.807230 0.003409 -9.799263 -13.902366 -0.077356 1.767920 -4.865401 -2.832687 0.794407 9.217756 1.565913 0.834747 -1.991822 3.121150 0.570462 -7.351704 -11.865170 -8.629745 -9.793998 5.167967 -11.779206 33.200788 2.281111 -6.023520 14.008320 0.000000 0.000000 0.000000 44.301749 21.855753 -76.264809 94.664875 -59.907970 64.038288 -24.793659 -46.651712 -20.879999 0.000000 0.000000 0.000000 -7.125000 0.000000 0.000000 -47.593480 45.194684 0.300596 0.000000 0.000000 0.000000 -28.236098 5.898697 -17.488385 -33.384089 -43.622257 -13.686660 -1.914447 24.261737 -3.175545 0.000000 0.000000 0.000000 7.125000 0.000000 0.000000 18.587947 26.657245 8.708818
0.661050 16.150144 0.088785 -0.704533 -2.324398 0.718760 0.000000 0.000000 0.000000 -18.691232 -8.231259 8.199011 0.063029 1.619735 4.455913 -0.020003 7.414706 -10.115430 0.187481 -2.788510 -7.690424 0.000000 0.000000 0.000000 17.035426 12.963446 5.471591 -0.380402 -3.960931 10.966786 0.026772 -9.996708 -13.793106 -0.181449 2.743736 -7.566043 -2.964217 0.851578 9.457104 1.320436 0.871612 -1.956938 2.928495 0.589218 -7.452735 -12.029997 -8.520156 -10.156649 5.103804 -11.498481 33.236603 2.315051 -5.919912 14.082364 0.000000 0.000000 0.000000 40.564465 22.000957 -69.093082 80.180157 -59.616028 51.507616 -21.507859 -40.082113 -19.996087 0.000000 0.000000 0.000000 -7.125000 0.000000 0.000000 -44.666369 44.990133 -0.013421 0.000000 0.000000 0.000000 -25.396796 7.072351 -14.528181 -31.503133 -42.146776 -12.406418 -2.133757 21.572377 -2.691386 0.000000 0.000000 0.000000 7.125000 0.000000 0.000000 18.505080 27.119729 8.452130
0.637883 16.147315 0.087264 -0.977075 -2.086002 0.555462 0.000000 0.000000 0.000000 -18.391193 -8.598610 7.924864 0.094876 1.985089 5.464427 0.011863 7.262447 -10.622619 0.219702 -3.017297 -8.326968 0.000000 0.000000 0.000000 17.449384 12.639996 5.718199 -0.368121 -3.897108 10.787302 0.031828 -9.998991 -13.709643 -0.130855 2.315352 -6.378640 -2.639212 0.923943 9.797309 1.054750 0.979720 -2.077635 2.443134 0.626926 -7.773674 -12.166644 -8.456375 -10.382073 5.103062 -11.336481 33.305002 2.355660 -5.861093 14.156559 0.000000 0.000000 0.000000 35.846914 21.929033 -60.647954 65.293380 -57.550774 38.780857 -15.769287 -31.312765 -18.642563 0.000000 0.000000 0.000000 -7.125000 0.000000 0.000000 -39.530731 44.700111 -0.349870 0.000000 0.000000 0.000000 -22.827336 8.293502 -11.924672 -29.384121 -40.358583 -11.009037 -0.882098 20.565387 -3.386885 0.000000 0.000000 0.000000 7.125000 0.000000 0.000000 19.304203 26.442483 9.187072
0.614520 16.146400 0.086044 -1.033279 -1.681387 0.445871 0.000000 0.000000 0.000000 -18.300082 -9.106119 7.736106 0.121166 2.244271 6.181185 0.029713 7.206762 -10.932540 0.254032 -3.242772 -8.955315 0.000000 0.000000 0.000000 17.647942 12.380953 6.035734 -0.352623 -3.815098 10.557162 0.034565 -10.148972 -13.884496 -0.056125 1.528075 -4.203166 -2.634767 0.950648 9.915961 0.755311 0.989809 -2.135996 2.120153 0.626007 -7.899109 -11.942315 -8.447375 -10.287951 4.808604 -11.248520 32.901282 2.219978 -5.832505 13.904705 0.000000 0.000000 0.000000 30.419488 21.129732 -50.537813 52.498256 -53.951880 28.182646 -10.060914 -23.093347 -17.773116 0.000000 0.000000 0.000000 -7.125000 0.000000 0.000000 -34.527617 44.714299 -0.278451 0.000000 0.000000 0.000000 -20.349843 9.070561 -9.549411 -26.873017 -38.057515 -9.420872 -0.855494 17.812078 -3.939656 0.000000 0.000000 0.000000 7.125000 0.000000 0.000000 19.234205 25.920236 9.401003
0.599615 16.147176 0.081489 -1.062869 -1.283616 0.487845 0.000000 0.000000 0.000000 -18.237367 -9.513103 7.784040 0.120552 2.238179 6.164341 0.021707 7.309896 -10.900773 0.257055 -3.261935 -9.008869 0.000000 0.000000 0.000000 17.702610 12.113680 5.938691 -0.352169 -3.812669 10.550207 0.030154 -10.177789 -14.002052 -0.036399 1.231319 -3.385538 -2.530143 0.936511 9.913106 0.412158 0.957584 -2.195344 1.702517 0.597337 -7.950434 -11.940377 -8.490190 -10.516341 4.925292 -11.318670 32.890298 2.243857 -5.842532 13.965696 0.000000 0.000000 0.000000 25.315160 19.965924 -40.104707 44.362215 -50.444585 21.747981 -3.607203 -20.489731 -18.819595 0.000000 0.000000 0.000000 -7.125000 0.000000 0.000000 -29.678457 46.433192 1.148571 0.000000 0.000000 0.000000 -18.023092 9.403827 -7.334789 -24.276710 -35.453949 -7.867136 -1.481318 13.882139 -4.010755 0.000000 0.000000 0.000000 7.125000 0.000000 0.000000 18.771488 25.860340 9.177277
0.585192 16.148185 0.082872 -1.089226 -1.021711 0.528212 0.000000 0.000000 0.000000 -18.151502 -9.839711 7.658453 0.129887 2.323074 6.399392 0.034016 7.222439 -11.042210 0.255115 -3.249949 -8.975376 0.000000 0.000000 0.000000 17.774374 11.935575 6.029236 -0.334530 -3.716942 10.281623 0.044795 -10.291741 -13.922756 -0.051615 1.466474 -4.033222 -2.540241 0.984747 9.884433 0.128444 0.998547 -2.300151 1.400424 0.612122 -8.043406 -11.960890 -8.529467 -10.718430 5.159765 -11.431226 32.965522 2.312762 -5.860079 14.074931 0.000000 0.000000 0.000000 20.576902 18.225515 -29.386743 38.762270 -47.316207 17.524787 -0.968154 -21.250237 -19.438436 0.000000 0.000000 0.000000 -7.125000 0.000000 0.000000 -27.703076 47.327393 1.715853 0.000000 0.000000 0.000000 -15.733715 9.602962 -6.276789 -22.048928 -33.030954 -6.613107 -0.705369 14.380953 -4.558393 0.000000 0.000000 0.000000 7.125000 0.000000 0.000000 19.244662 25.334252 9.688185
0.568271 16.148183 0.087097 -1.476184 -0.642442 0.499721 0.000000 0.000000 0.000000 -17.689301 -10.302205 7.507748 0.153322 2.522829 6.953011 0.056574 7.037841 -11.265038 0.257248 -3.263165 -9.012253 0.000000 0.000000 0.000000 18.326754 11.855005 6.473905 -0.300464 -3.524554 9.742699 0.081639 -10.731418 -13.965430 -0.043271 1.342119 -3.690656 -2.247315 0.993548 10.050229 0.016891 1.032431 -2.555564 1.106892 0.616672 -8.407937 -12.050618 -8.561144 -10.744804 5.220498 -11.500748 33.350013 2.338853 -5.895125 14.275293 0.000000 0.000000 0.000000 17.063923 16.950974 -21.628052 35.265354 -44.999565 15.001022 3.315277 -25.083490 -18.901711 0.000000 0.000000 0.000000 -7.125000 0.000000 0.000000 -23.660760 47.418822 1.492813 0.000000 0.000000 0.000000 -13.587868 9.993607 -6.246995 -20.122222 -30.788873 -5.593975 -0.045136 16.762576 -5.706370 0.000000 0.000000 0.000000 7.125000 0.000000 0.000000 19.538822 24.245562 10.383370
0.557329 16.147542 0.093271 -1.081776 -0.297216 0.522499 0.000000 0.000000 0.000000 -18.082618 -10.426472 8.181510 0.104724 2.086509 5.744864 0.001975 7.424890 -10.631038 0.250271 -3.218839 -8.888554 0.000000 0.000000 0.000000 17.927447 11.698952 6.069822 -0.345589 -3.776994 10.450220 0.040117 -10.587283 -14.440608 -0.042968 1.338536 -3.680766 -2.740375 1.070397 10.017752 -0.212043 1.050337 -2.689104 1.137320 0.646494 -8.540965 -12.407128 -8.573860 -10.933552 5.431640 -11.493767 33.602823 2.476341 -5.905057 14.479880 0.000000 0.000000 0.000000 14.281402 15.750936 -15.967356 32.924464 -43.271730 13.370383 6.307700 -27.360488 -18.206367 0.000000 0.000000 0.000000 -7.125000 0.000000 0.000000 -20.674737 47.173861 1.156688 0.000000 0.000000 0.000000 -11.816510 10.435830 -5.420595 -18.740202 -29.094409 -4.903901 -0.249241 16.663497 -6.623785 0.000000 0.000000 0.000000 7.125000 0.000000 0.000000 19.260860 23.381243 10.628650
0.549359 16.145651 0.098382 -0.698436 -0.025594 0.588512 0.000000 0.000000 0.000000 -18.449151 -10.505643 8.762272 0.067538 1.677040 4.613870 -0.039659 7.724679 -10.118743 0.244474 -3.181569 -8.784681 0.000000 0.000000 0.000000 17.509082 11.567991 5.621638 -0.392574 -4.023001 11.141327 0.006172 -10.429077 -14.755251 -0.038280 1.262818 -3.472322 -3.236013 1.096187 9.956850 -0.402753 1.003209 -2.808253 1.221239 0.646205 -8.640503 -12.421495 -8.503554 -11.318424 5.348084 -11.318169 33.850364 2.461681 -5.832506 14.655019 0.000000 0.000000 0.000000 12.314535 14.762574 -12.257227 30.717792 -41.499914 11.882697 7.777520 -24.728401 -17.316967 0.000000 0.000000 0.000000 -7.125000 0.000000 0.000000 -18.995762 46.526324 0.742196 0.000000 0.000000 0.000000 -10.280028 11.194233 -3.710502 -18.145946 -28.343534 -4.618346 -0.586686 15.042911 -7.541770 0.000000 0.000000 0.000000 7.125000 0.000000 0.000000 18.898569 22.513841 10.806424
